<?xml version="1.0" encoding="UTF-8" ?>
<svg version="1.1" width="125" height="125" xmlns="http://www.w3.org/2000/svg" shape-rendering="crispEdges">
<rect x="10" y="0" width="1" height="1" fill="#232228" opacity="0.341176" />
<rect x="11" y="0" width="1" height="1" fill="#232228" opacity="0.752941" />
<rect x="12" y="0" width="1" height="1" fill="#232228" opacity="0.937255" />
<rect x="13" y="0" width="1" height="1" fill="#232228" opacity="0.996078" />
<rect x="14" y="0" width="97" height="4" fill="#232228" />
<rect x="111" y="0" width="1" height="1" fill="#232228" opacity="0.996078" />
<rect x="112" y="0" width="1" height="1" fill="#232228" opacity="0.937255" />
<rect x="113" y="0" width="1" height="1" fill="#232228" opacity="0.752941" />
<rect x="114" y="0" width="1" height="1" fill="#232228" opacity="0.341176" />
<rect x="8" y="1" width="1" height="1" fill="#232228" opacity="0.611765" />
<rect x="9" y="1" width="1" height="1" fill="#232228" opacity="0.984314" />
<rect x="10" y="1" width="4" height="3" fill="#232228" />
<rect x="111" y="1" width="4" height="3" fill="#232228" />
<rect x="115" y="1" width="1" height="1" fill="#232228" opacity="0.984314" />
<rect x="116" y="1" width="1" height="1" fill="#232228" opacity="0.611765" />
<rect x="6" y="2" width="1" height="1" fill="#232228" opacity="0.341176" />
<rect x="7" y="2" width="1" height="1" fill="#232228" opacity="0.964706" />
<rect x="8" y="2" width="2" height="3" fill="#232228" />
<rect x="115" y="2" width="2" height="3" fill="#232228" />
<rect x="117" y="2" width="1" height="1" fill="#232228" opacity="0.964706" />
<rect x="118" y="2" width="1" height="1" fill="#232228" opacity="0.341176" />
<rect x="5" y="3" width="1" height="1" fill="#232228" opacity="0.611765" />
<rect x="6" y="3" width="2" height="3" fill="#232228" />
<rect x="117" y="3" width="2" height="3" fill="#232228" />
<rect x="119" y="3" width="1" height="1" fill="#232228" opacity="0.611765" />
<rect x="4" y="4" width="1" height="1" fill="#232228" opacity="0.611765" />
<rect x="5" y="4" width="1" height="5" fill="#232228" />
<rect x="10" y="4" width="1" height="1" fill="#535357" />
<rect x="11" y="4" width="1" height="1" fill="#8B8A8D" />
<rect x="12" y="4" width="1" height="1" fill="#D6D5D7" />
<rect x="13" y="4" width="1" height="1" fill="#FDFDFD" />
<rect x="14" y="4" width="97" height="8" fill="#FFFFFF" />
<rect x="111" y="4" width="1" height="1" fill="#FDFDFD" />
<rect x="112" y="4" width="1" height="1" fill="#D6D5D7" />
<rect x="113" y="4" width="1" height="1" fill="#8B8A8D" />
<rect x="114" y="4" width="1" height="1" fill="#535357" />
<rect x="119" y="4" width="1" height="5" fill="#232228" />
<rect x="120" y="4" width="1" height="1" fill="#232228" opacity="0.611765" />
<rect x="3" y="5" width="1" height="1" fill="#232228" opacity="0.611765" />
<rect x="4" y="5" width="1" height="5" fill="#232228" />
<rect x="8" y="5" width="1" height="1" fill="#232228" />
<rect x="9" y="5" width="1" height="1" fill="#8B8A8D" />
<rect x="10" y="5" width="4" height="75" fill="#FFFFFF" />
<rect x="111" y="5" width="4" height="72" fill="#FFFFFF" />
<rect x="115" y="5" width="1" height="1" fill="#8B8A8D" />
<rect x="116" y="5" width="1" height="1" fill="#232228" />
<rect x="120" y="5" width="1" height="5" fill="#232228" />
<rect x="121" y="5" width="1" height="1" fill="#232228" opacity="0.611765" />
<rect x="2" y="6" width="1" height="1" fill="#232228" opacity="0.341176" />
<rect x="3" y="6" width="1" height="113" fill="#232228" />
<rect x="6" y="6" width="1" height="1" fill="#232228" />
<rect x="7" y="6" width="1" height="1" fill="#58575B" />
<rect x="8" y="6" width="1" height="1" fill="#D6D5D7" />
<rect x="9" y="6" width="1" height="113" fill="#FFFFFF" />
<rect x="115" y="6" width="1" height="113" fill="#FFFFFF" />
<rect x="116" y="6" width="1" height="1" fill="#D6D5D7" />
<rect x="117" y="6" width="1" height="1" fill="#58575B" />
<rect x="118" y="6" width="1" height="1" fill="#232228" />
<rect x="121" y="6" width="1" height="113" fill="#232228" />
<rect x="122" y="6" width="1" height="1" fill="#232228" opacity="0.341176" />
<rect x="2" y="7" width="1" height="1" fill="#232228" opacity="0.964706" />
<rect x="6" y="7" width="1" height="1" fill="#58575B" />
<rect x="7" y="7" width="1" height="1" fill="#DEDEDF" />
<rect x="8" y="7" width="1" height="111" fill="#FFFFFF" />
<rect x="116" y="7" width="1" height="111" fill="#FFFFFF" />
<rect x="117" y="7" width="1" height="1" fill="#DEDEDF" />
<rect x="118" y="7" width="1" height="1" fill="#58575B" />
<rect x="122" y="7" width="1" height="1" fill="#232228" opacity="0.964706" />
<rect x="1" y="8" width="1" height="1" fill="#232228" opacity="0.611765" />
<rect x="2" y="8" width="1" height="109" fill="#232228" />
<rect x="6" y="8" width="1" height="1" fill="#D6D5D7" />
<rect x="7" y="8" width="1" height="109" fill="#FFFFFF" />
<rect x="117" y="8" width="1" height="109" fill="#FFFFFF" />
<rect x="118" y="8" width="1" height="1" fill="#D6D5D7" />
<rect x="122" y="8" width="1" height="109" fill="#232228" />
<rect x="123" y="8" width="1" height="1" fill="#232228" opacity="0.611765" />
<rect x="1" y="9" width="1" height="1" fill="#232228" opacity="0.984314" />
<rect x="5" y="9" width="1" height="1" fill="#8B8A8D" />
<rect x="6" y="9" width="1" height="107" fill="#FFFFFF" />
<rect x="118" y="9" width="1" height="107" fill="#FFFFFF" />
<rect x="119" y="9" width="1" height="1" fill="#8B8A8D" />
<rect x="123" y="9" width="1" height="1" fill="#232228" opacity="0.984314" />
<rect x="0" y="10" width="1" height="1" fill="#232228" opacity="0.341176" />
<rect x="1" y="10" width="1" height="105" fill="#232228" />
<rect x="4" y="10" width="1" height="1" fill="#535357" />
<rect x="5" y="10" width="1" height="105" fill="#FFFFFF" />
<rect x="119" y="10" width="1" height="105" fill="#FFFFFF" />
<rect x="120" y="10" width="1" height="1" fill="#535357" />
<rect x="123" y="10" width="1" height="105" fill="#232228" />
<rect x="124" y="10" width="1" height="1" fill="#232228" opacity="0.341176" />
<rect x="0" y="11" width="1" height="1" fill="#232228" opacity="0.752941" />
<rect x="4" y="11" width="1" height="1" fill="#8B8A8D" />
<rect x="120" y="11" width="1" height="1" fill="#8B8A8D" />
<rect x="124" y="11" width="1" height="1" fill="#232228" opacity="0.752941" />
<rect x="0" y="12" width="1" height="1" fill="#232228" opacity="0.937255" />
<rect x="4" y="12" width="1" height="1" fill="#D6D5D7" />
<rect x="14" y="12" width="29" height="3" fill="#FFFFFF" />
<rect x="43" y="12" width="6" height="3" fill="#232228" />
<rect x="49" y="12" width="3" height="3" fill="#FFFFFF" />
<rect x="52" y="12" width="6" height="3" fill="#232228" />
<rect x="58" y="12" width="3" height="3" fill="#FFFFFF" />
<rect x="61" y="12" width="6" height="3" fill="#232228" />
<rect x="67" y="12" width="3" height="3" fill="#FFFFFF" />
<rect x="70" y="12" width="6" height="3" fill="#232228" />
<rect x="76" y="12" width="35" height="3" fill="#FFFFFF" />
<rect x="120" y="12" width="1" height="1" fill="#D6D5D7" />
<rect x="124" y="12" width="1" height="1" fill="#232228" opacity="0.937255" />
<rect x="0" y="13" width="1" height="1" fill="#232228" opacity="0.996078" />
<rect x="4" y="13" width="1" height="1" fill="#FDFDFD" />
<rect x="120" y="13" width="1" height="1" fill="#FDFDFD" />
<rect x="124" y="13" width="1" height="1" fill="#232228" opacity="0.996078" />
<rect x="0" y="14" width="1" height="97" fill="#232228" />
<rect x="4" y="14" width="1" height="97" fill="#FFFFFF" />
<rect x="120" y="14" width="1" height="97" fill="#FFFFFF" />
<rect x="124" y="14" width="1" height="97" fill="#232228" />
<rect x="14" y="15" width="26" height="50" fill="#FFFFFF" />
<rect x="40" y="15" width="3" height="24" fill="#232228" />
<rect x="43" y="15" width="6" height="12" fill="#55A058" />
<rect x="49" y="15" width="3" height="12" fill="#232228" />
<rect x="52" y="15" width="6" height="12" fill="#55A058" />
<rect x="58" y="15" width="3" height="12" fill="#232228" />
<rect x="61" y="15" width="6" height="3" fill="#55A058" />
<rect x="67" y="15" width="3" height="6" fill="#232228" />
<rect x="70" y="15" width="6" height="3" fill="#55A058" />
<rect x="76" y="15" width="3" height="6" fill="#232228" />
<rect x="79" y="15" width="32" height="6" fill="#FFFFFF" />
<rect x="61" y="18" width="3" height="3" fill="#55A058" />
<rect x="64" y="18" width="3" height="3" fill="#232228" />
<rect x="70" y="18" width="6" height="3" fill="#232228" />
<rect x="61" y="21" width="3" height="6" fill="#232228" />
<rect x="64" y="21" width="15" height="6" fill="#55A058" />
<rect x="79" y="21" width="3" height="18" fill="#232228" />
<rect x="82" y="21" width="29" height="44" fill="#FFFFFF" />
<rect x="43" y="27" width="6" height="3" fill="#232228" />
<rect x="49" y="27" width="3" height="12" fill="#55A058" />
<rect x="52" y="27" width="6" height="3" fill="#232228" />
<rect x="58" y="27" width="6" height="12" fill="#55A058" />
<rect x="64" y="27" width="15" height="3" fill="#232228" />
<rect x="43" y="30" width="6" height="9" fill="#55A058" />
<rect x="52" y="30" width="6" height="9" fill="#55A058" />
<rect x="64" y="30" width="15" height="9" fill="#55A058" />
<rect x="40" y="39" width="3" height="26" fill="#FFFFFF" />
<rect x="43" y="39" width="36" height="3" fill="#232228" />
<rect x="79" y="39" width="3" height="26" fill="#FFFFFF" />
<rect x="43" y="42" width="3" height="3" fill="#232228" />
<rect x="46" y="42" width="30" height="3" fill="#1E7453" />
<rect x="76" y="42" width="3" height="3" fill="#232228" />
<rect x="43" y="45" width="3" height="20" fill="#FFFFFF" />
<rect x="46" y="45" width="30" height="3" fill="#232228" />
<rect x="76" y="45" width="3" height="23" fill="#FFFFFF" />
<rect x="46" y="48" width="30" height="17" fill="#FFFFFF" />
<rect x="14" y="65" width="17" height="3" fill="#FFFFFF" />
<rect x="31" y="65" width="6" height="3" fill="#232228" />
<rect x="37" y="65" width="3" height="3" fill="#FFFFFF" />
<rect x="40" y="65" width="9" height="3" fill="#232228" />
<rect x="49" y="65" width="21" height="3" fill="#FFFFFF" />
<rect x="70" y="65" width="6" height="3" fill="#232228" />
<rect x="79" y="65" width="6" height="3" fill="#232228" />
<rect x="85" y="65" width="3" height="3" fill="#FFFFFF" />
<rect x="88" y="65" width="6" height="3" fill="#232228" />
<rect x="94" y="65" width="3" height="3" fill="#FFFFFF" />
<rect x="97" y="65" width="6" height="3" fill="#232228" />
<rect x="103" y="65" width="8" height="3" fill="#FFFFFF" />
<rect x="14" y="68" width="14" height="12" fill="#FFFFFF" />
<rect x="28" y="68" width="3" height="24" fill="#232228" />
<rect x="31" y="68" width="6" height="15" fill="#E6928A" />
<rect x="37" y="68" width="3" height="18" fill="#232228" />
<rect x="40" y="68" width="6" height="15" fill="#E6928A" />
<rect x="46" y="68" width="3" height="18" fill="#232228" />
<rect x="49" y="68" width="18" height="18" fill="#FFFFFF" />
<rect x="67" y="68" width="3" height="36" fill="#232228" />
<rect x="70" y="68" width="6" height="36" fill="#54BAD2" />
<rect x="76" y="68" width="3" height="18" fill="#232228" />
<rect x="79" y="68" width="6" height="36" fill="#54BAD2" />
<rect x="85" y="68" width="3" height="18" fill="#232228" />
<rect x="88" y="68" width="6" height="36" fill="#54BAD2" />
<rect x="94" y="68" width="3" height="18" fill="#232228" />
<rect x="97" y="68" width="6" height="36" fill="#54BAD2" />
<rect x="103" y="68" width="3" height="18" fill="#232228" />
<rect x="106" y="68" width="5" height="9" fill="#FFFFFF" />
<rect x="106" y="77" width="6" height="3" fill="#232228" />
<rect x="112" y="77" width="3" height="3" fill="#FFFFFF" />
<rect x="10" y="80" width="3" height="3" fill="#FFFFFF" />
<rect x="13" y="80" width="6" height="3" fill="#232228" />
<rect x="19" y="80" width="3" height="3" fill="#FFFFFF" />
<rect x="22" y="80" width="6" height="3" fill="#232228" />
<rect x="106" y="80" width="6" height="12" fill="#54BAD2" />
<rect x="112" y="80" width="3" height="12" fill="#232228" />
<rect x="10" y="83" width="3" height="21" fill="#232228" />
<rect x="13" y="83" width="6" height="9" fill="#E6928A" />
<rect x="19" y="83" width="3" height="9" fill="#232228" />
<rect x="22" y="83" width="6" height="9" fill="#E6928A" />
<rect x="31" y="83" width="3" height="3" fill="#E6928A" />
<rect x="34" y="83" width="3" height="3" fill="#232228" />
<rect x="40" y="83" width="6" height="3" fill="#232228" />
<rect x="31" y="86" width="3" height="6" fill="#232228" />
<rect x="34" y="86" width="15" height="6" fill="#E6928A" />
<rect x="49" y="86" width="3" height="18" fill="#232228" />
<rect x="52" y="86" width="15" height="35" fill="#FFFFFF" />
<rect x="76" y="86" width="3" height="18" fill="#54BAD2" />
<rect x="85" y="86" width="3" height="18" fill="#54BAD2" />
<rect x="94" y="86" width="3" height="18" fill="#54BAD2" />
<rect x="103" y="86" width="3" height="18" fill="#54BAD2" />
<rect x="13" y="92" width="6" height="3" fill="#232228" />
<rect x="19" y="92" width="3" height="12" fill="#E6928A" />
<rect x="22" y="92" width="6" height="3" fill="#232228" />
<rect x="28" y="92" width="6" height="12" fill="#E6928A" />
<rect x="34" y="92" width="15" height="3" fill="#232228" />
<rect x="106" y="92" width="3" height="3" fill="#54BAD2" />
<rect x="109" y="92" width="3" height="3" fill="#232228" />
<rect x="112" y="92" width="3" height="28" fill="#FFFFFF" />
<rect x="13" y="95" width="6" height="9" fill="#E6928A" />
<rect x="22" y="95" width="6" height="9" fill="#E6928A" />
<rect x="34" y="95" width="15" height="9" fill="#E6928A" />
<rect x="106" y="95" width="3" height="9" fill="#232228" />
<rect x="109" y="95" width="3" height="25" fill="#FFFFFF" />
<rect x="10" y="104" width="3" height="16" fill="#FFFFFF" />
<rect x="13" y="104" width="36" height="3" fill="#232228" />
<rect x="49" y="104" width="3" height="17" fill="#FFFFFF" />
<rect x="67" y="104" width="3" height="17" fill="#FFFFFF" />
<rect x="70" y="104" width="36" height="3" fill="#232228" />
<rect x="106" y="104" width="3" height="17" fill="#FFFFFF" />
<rect x="13" y="107" width="3" height="3" fill="#232228" />
<rect x="16" y="107" width="30" height="3" fill="#C65046" />
<rect x="46" y="107" width="3" height="3" fill="#232228" />
<rect x="70" y="107" width="3" height="3" fill="#232228" />
<rect x="73" y="107" width="30" height="3" fill="#2485A6" />
<rect x="103" y="107" width="3" height="3" fill="#232228" />
<rect x="13" y="110" width="3" height="10" fill="#FFFFFF" />
<rect x="16" y="110" width="30" height="3" fill="#232228" />
<rect x="46" y="110" width="3" height="11" fill="#FFFFFF" />
<rect x="70" y="110" width="3" height="11" fill="#FFFFFF" />
<rect x="73" y="110" width="30" height="3" fill="#232228" />
<rect x="103" y="110" width="3" height="11" fill="#FFFFFF" />
<rect x="0" y="111" width="1" height="1" fill="#232228" opacity="0.996078" />
<rect x="4" y="111" width="1" height="1" fill="#FDFDFD" />
<rect x="120" y="111" width="1" height="1" fill="#FDFDFD" />
<rect x="124" y="111" width="1" height="1" fill="#232228" opacity="0.996078" />
<rect x="0" y="112" width="1" height="1" fill="#232228" opacity="0.937255" />
<rect x="4" y="112" width="1" height="1" fill="#D6D5D7" />
<rect x="120" y="112" width="1" height="1" fill="#D6D5D7" />
<rect x="124" y="112" width="1" height="1" fill="#232228" opacity="0.937255" />
<rect x="0" y="113" width="1" height="1" fill="#232228" opacity="0.752941" />
<rect x="4" y="113" width="1" height="1" fill="#8B8A8D" />
<rect x="16" y="113" width="30" height="8" fill="#FFFFFF" />
<rect x="73" y="113" width="30" height="8" fill="#FFFFFF" />
<rect x="120" y="113" width="1" height="1" fill="#8B8A8D" />
<rect x="124" y="113" width="1" height="1" fill="#232228" opacity="0.752941" />
<rect x="0" y="114" width="1" height="1" fill="#232228" opacity="0.341176" />
<rect x="4" y="114" width="1" height="1" fill="#535357" />
<rect x="120" y="114" width="1" height="1" fill="#535357" />
<rect x="124" y="114" width="1" height="1" fill="#232228" opacity="0.341176" />
<rect x="1" y="115" width="1" height="1" fill="#232228" opacity="0.984314" />
<rect x="4" y="115" width="1" height="5" fill="#232228" />
<rect x="5" y="115" width="1" height="1" fill="#8B8A8D" />
<rect x="119" y="115" width="1" height="1" fill="#8B8A8D" />
<rect x="120" y="115" width="1" height="5" fill="#232228" />
<rect x="123" y="115" width="1" height="1" fill="#232228" opacity="0.984314" />
<rect x="1" y="116" width="1" height="1" fill="#232228" opacity="0.611765" />
<rect x="5" y="116" width="1" height="5" fill="#232228" />
<rect x="6" y="116" width="1" height="1" fill="#D6D5D7" />
<rect x="118" y="116" width="1" height="1" fill="#D6D5D7" />
<rect x="119" y="116" width="1" height="5" fill="#232228" />
<rect x="123" y="116" width="1" height="1" fill="#232228" opacity="0.611765" />
<rect x="2" y="117" width="1" height="1" fill="#232228" opacity="0.964706" />
<rect x="6" y="117" width="1" height="1" fill="#58575B" />
<rect x="7" y="117" width="1" height="1" fill="#DEDEDF" />
<rect x="117" y="117" width="1" height="1" fill="#DEDEDF" />
<rect x="118" y="117" width="1" height="1" fill="#58575B" />
<rect x="122" y="117" width="1" height="1" fill="#232228" opacity="0.964706" />
<rect x="2" y="118" width="1" height="1" fill="#232228" opacity="0.341176" />
<rect x="6" y="118" width="1" height="4" fill="#232228" />
<rect x="7" y="118" width="1" height="1" fill="#58575B" />
<rect x="8" y="118" width="1" height="1" fill="#D6D5D7" />
<rect x="116" y="118" width="1" height="1" fill="#D6D5D7" />
<rect x="117" y="118" width="1" height="1" fill="#58575B" />
<rect x="118" y="118" width="1" height="4" fill="#232228" />
<rect x="122" y="118" width="1" height="1" fill="#232228" opacity="0.341176" />
<rect x="3" y="119" width="1" height="1" fill="#232228" opacity="0.611765" />
<rect x="7" y="119" width="2" height="3" fill="#232228" />
<rect x="9" y="119" width="1" height="1" fill="#8B8A8D" />
<rect x="115" y="119" width="1" height="1" fill="#8B8A8D" />
<rect x="116" y="119" width="2" height="3" fill="#232228" />
<rect x="121" y="119" width="1" height="1" fill="#232228" opacity="0.611765" />
<rect x="4" y="120" width="1" height="1" fill="#232228" opacity="0.611765" />
<rect x="9" y="120" width="1" height="3" fill="#232228" />
<rect x="10" y="120" width="1" height="1" fill="#535357" />
<rect x="11" y="120" width="1" height="1" fill="#8B8A8D" />
<rect x="12" y="120" width="1" height="1" fill="#D6D5D7" />
<rect x="13" y="120" width="1" height="1" fill="#FDFDFD" />
<rect x="14" y="120" width="2" height="1" fill="#FFFFFF" />
<rect x="109" y="120" width="2" height="1" fill="#FFFFFF" />
<rect x="111" y="120" width="1" height="1" fill="#FDFDFD" />
<rect x="112" y="120" width="1" height="1" fill="#D6D5D7" />
<rect x="113" y="120" width="1" height="1" fill="#8B8A8D" />
<rect x="114" y="120" width="1" height="1" fill="#535357" />
<rect x="115" y="120" width="1" height="3" fill="#232228" />
<rect x="120" y="120" width="1" height="1" fill="#232228" opacity="0.611765" />
<rect x="5" y="121" width="1" height="1" fill="#232228" opacity="0.611765" />
<rect x="10" y="121" width="105" height="3" fill="#232228" />
<rect x="119" y="121" width="1" height="1" fill="#232228" opacity="0.611765" />
<rect x="6" y="122" width="1" height="1" fill="#232228" opacity="0.341176" />
<rect x="7" y="122" width="1" height="1" fill="#232228" opacity="0.964706" />
<rect x="8" y="122" width="1" height="1" fill="#232228" />
<rect x="116" y="122" width="1" height="1" fill="#232228" />
<rect x="117" y="122" width="1" height="1" fill="#232228" opacity="0.964706" />
<rect x="118" y="122" width="1" height="1" fill="#232228" opacity="0.341176" />
<rect x="8" y="123" width="1" height="1" fill="#232228" opacity="0.611765" />
<rect x="9" y="123" width="1" height="1" fill="#232228" opacity="0.984314" />
<rect x="115" y="123" width="1" height="1" fill="#232228" opacity="0.984314" />
<rect x="116" y="123" width="1" height="1" fill="#232228" opacity="0.611765" />
<rect x="10" y="124" width="1" height="1" fill="#232228" opacity="0.341176" />
<rect x="11" y="124" width="1" height="1" fill="#232228" opacity="0.752941" />
<rect x="12" y="124" width="1" height="1" fill="#232228" opacity="0.937255" />
<rect x="13" y="124" width="1" height="1" fill="#232228" opacity="0.996078" />
<rect x="14" y="124" width="97" height="1" fill="#232228" />
<rect x="111" y="124" width="1" height="1" fill="#232228" opacity="0.996078" />
<rect x="112" y="124" width="1" height="1" fill="#232228" opacity="0.937255" />
<rect x="113" y="124" width="1" height="1" fill="#232228" opacity="0.752941" />
<rect x="114" y="124" width="1" height="1" fill="#232228" opacity="0.341176" />
</svg>